<svg width="40" height="40" viewBox="0 0 40 40" fill="none" xmlns="http://www.w3.org/2000/svg">
<path d="M20 0C8.95422 0 0 8.95422 0 20C0 31.0458 8.95422 40 20 40C31.0458 40 40 31.0458 40 20C40 8.95422 31.0458 0 20 0Z" fill="#40B3E0"/>
<path d="M29.7347 11.5052L26.1623 29.516C26.1623 29.516 25.6628 30.765 24.2889 30.1655L16.0455 23.8455L13.048 22.3968L8.00203 20.698C8.00203 20.698 7.22766 20.4233 7.15266 19.8238C7.07766 19.2243 8.02703 18.8996 8.02703 18.8996L28.0858 11.0308C28.0858 11.0308 29.7345 10.3064 29.7345 11.5055" fill="white"/>
<path d="M15.4109 29.3142C15.4109 29.3142 15.1703 29.2917 14.8703 28.3423C14.5708 27.3931 13.0469 22.3971 13.0469 22.3971L25.1622 14.7034C25.1622 14.7034 25.8617 14.2787 25.8367 14.7034C25.8367 14.7034 25.9616 14.7784 25.5867 15.1281C25.2122 15.4779 16.0695 23.6962 16.0695 23.6962" fill="#D2E5F1"/>
<path d="M19.2044 26.2689L15.9439 29.2417C15.9439 29.2417 15.6889 29.4351 15.4102 29.3139L16.0345 23.792" fill="#B5CFE4"/>
</svg>
