<svg width="43" height="42" viewBox="0 0 43 42" fill="none" xmlns="http://www.w3.org/2000/svg">
<g clip-path="url(#clip0_668_1299)">
<path d="M43.5148 7.62297C41.933 8.32391 40.2337 8.79752 38.4472 9.01159C40.2905 7.90864 41.6695 6.17273 42.327 4.12776C40.5952 5.15641 38.6998 5.88047 36.7233 6.26846C35.3941 4.84928 33.6336 3.90863 31.715 3.59254C29.7965 3.27645 27.8273 3.60261 26.1131 4.52039C24.3989 5.43816 23.0356 6.8962 22.235 8.66814C21.4344 10.4401 21.2412 12.4268 21.6853 14.3198C18.1763 14.1436 14.7435 13.2315 11.6097 11.6428C8.47594 10.054 5.71126 7.82409 3.49508 5.09771C2.73731 6.40486 2.3016 7.9204 2.3016 9.53445C2.30075 10.9875 2.65857 12.4182 3.3433 13.6998C4.02803 14.9813 5.01851 16.0741 6.22684 16.881C4.82549 16.8364 3.45506 16.4578 2.22961 15.7766V15.8902C2.22947 17.9282 2.9344 19.9033 4.22478 21.4807C5.51517 23.058 7.31154 24.1403 9.30907 24.544C8.00909 24.8958 6.64615 24.9476 5.3232 24.6955C5.88679 26.449 6.98461 27.9824 8.46296 29.081C9.94132 30.1796 11.7262 30.7883 13.5677 30.8221C10.4416 33.2762 6.58089 34.6073 2.6066 34.6015C1.9026 34.6017 1.19919 34.5605 0.5 34.4783C4.53413 37.0721 9.23015 38.4487 14.0262 38.4434C30.2614 38.4434 39.1368 24.9967 39.1368 13.3347C39.1368 12.9558 39.1273 12.5731 39.1103 12.1942C40.8366 10.9457 42.3268 9.39975 43.511 7.62866L43.5148 7.62297Z" fill="#55ACEE"/>
</g>
<defs>
<clipPath id="clip0_668_1299">
<rect width="42" height="42" fill="white" transform="translate(0.5)"/>
</clipPath>
</defs>
</svg>
